#!OML:ASF H:\Male1\Project 1\Capture day 1\Session 1\Male1.ASF
:FULLY-SPECIFIED
:DEGREES
518
root 10.8761 9.18773 0.165883 152.89 -80.7942 -180.845
lowerback 33.3776 2.47439 0.265918
upperback 16.1509 0.798171 -1.67297
thorax 0.624062 -0.509867 -2.12188
lowerneck -5.35941 4.43935 10.3584
upperneck 1.18859 5.44366 -7.05613
head 1.89423 2.64985 -4.01451
rclavicle -1.51076e-014 7.95139e-015
rhumerus -14.3763 10.5886 -86.6485
rradius 40.3496
rwrist -36.1332
rhand -19.9494 -4.5095
rfingers 7.12502
rthumb 6.38867 -34.3932
lclavicle -1.51076e-014 7.95139e-015
lhumerus -13.8813 29.1206 76.1465
lradius 21.2371
lwrist -15.9251
lhand -17.2636 11.0194
lfingers 7.12502
lthumb 8.98095 40.8082
rfemur -60.1209 -0.683171 22.6338
rtibia 101.704
rfoot -13.8005 -11.2084
rtoes -26.1474
lfemur -58.6399 9.6254 -15.725
ltibia 103.134
lfoot -15.1355 3.50375
ltoes -16.5294
519
root 10.8897 9.19361 0.164102 152.939 -80.8625 -181.232
lowerback 33.3938 2.53374 0.371217
upperback 16.1024 0.914895 -1.71074
thorax 0.572554 -0.438123 -2.24968
lowerneck -5.55701 4.30932 10.8162
upperneck 1.89996 5.26619 -7.80938
head 1.95943 2.54055 -3.90692
rclavicle -3.77691e-015 -2.14687e-014
rhumerus -14.9543 10.0496 -86.8091
rradius 39.8926
rwrist -35.9194
rhand -19.7926 -4.56923
rfingers 7.12502
rthumb 6.54005 -34.4482
lclavicle -3.77691e-015 -2.14687e-014
lhumerus -13.9096 29.07 76.3898
lradius 20.7203
lwrist -16.3265
lhand -19.2594 10.1296
lfingers 7.12502
lthumb 7.05478 39.992
rfemur -59.6794 -0.81546 22.5516
rtibia 101.565
rfoot -13.7175 -11.1452
rtoes -26.2109
lfemur -58.2047 9.35526 -15.7575
ltibia 102.915
lfoot -14.9368 3.69256
ltoes -16.377
520
root 10.9014 9.19918 0.160674 151.698 -80.825 -180.33
lowerback 33.4484 2.62764 0.637094
upperback 16.0233 1.13089 -1.63338
thorax 0.481519 -0.31093 -2.37057
lowerneck -5.84018 4.06406 11.1676
upperneck 2.798 4.91899 -7.87289
head 2.25038 2.37291 -3.98809
rclavicle -6.55989e-015 -3.89618e-014
rhumerus -15.5357 9.28458 -86.8601
rradius 39.3074
rwrist -35.3826
rhand -19.5214 -4.39526
rfingers 7.12502
rthumb 6.80185 -34.266
lclavicle -6.55989e-015 -3.89618e-014
lhumerus -13.9177 28.9179 76.8056
lradius 20.309
lwrist -16.9653
lhand -21.4907 8.96981
lfingers 7.12502
lthumb 4.90057 38.8931
rfemur -59.1838 -0.805928 22.7249
rtibia 101.379
rfoot -13.5407 -11.2281
rtoes -26.078
lfemur -57.7929 9.2022 -15.5066
ltibia 102.765
lfoot -14.7783 3.73111
ltoes -16.2474
521
root 10.9099 9.20252 0.155345 151.645 -81.0104 -180.564
lowerback 33.3895 2.75922 0.631468
upperback 15.9862 1.31898 -1.53606
thorax 0.468632 -0.214534 -2.31918
lowerneck -6.11687 3.75121 11.2582
upperneck 3.67809 4.47924 -7.5955
head 2.51096 2.16695 -3.93034
rclavicle -7.7526e-015 2.54444e-014
rhumerus -15.9754 8.4854 -86.7598
rradius 38.6744
rwrist -34.3752
rhand -18.8429 -4.182
rfingers 7.12502
rthumb 7.45675 -34.0306
lclavicle -7.7526e-015 2.54444e-014
lhumerus -13.7618 28.9479 77.4286
lradius 20.1968
lwrist -17.6244
lhand -23.0642 8.51168
lfingers 7.12502
lthumb 3.38115 38.4646
rfemur -58.8701 -0.945593 22.5989
rtibia 101.294
rfoot -13.2802 -11.3211
rtoes -25.9593
lfemur -57.4722 9.06835 -15.588
ltibia 102.615
lfoot -14.6869 3.69164
ltoes -16.2624
522
root 10.9183 9.20126 0.149176 151.121 -81.2614 -180.249
lowerback 33.3004 2.83592 0.649898
upperback 15.9672 1.44702 -1.39093
thorax 0.482986 -0.148891 -2.21322
lowerneck -6.19644 3.40686 11.3838
upperneck 4.17137 4.00106 -7.37848
head 2.62379 1.94195 -3.90535
rclavicle 1.51076e-014 -8.74653e-015
rhumerus -16.3098 7.90268 -86.5389
rradius 38.1487
rwrist -33.0246
rhand -17.9552 -4.1705
rfingers 7.12502
rthumb 8.31359 -33.9869
lclavicle 1.51076e-014 -8.74653e-015
lhumerus -13.6226 28.4428 78.2323
lradius 20.5729
lwrist -17.1537
lhand -24.1999 8.64503
lfingers 7.12502
lthumb 2.28429 38.6125
rfemur -58.7214 -1.11651 22.5399
rtibia 101.295
rfoot -13.0204 -11.397
rtoes -25.6859
lfemur -57.3235 9.1353 -15.651
ltibia 102.518
lfoot -14.6094 3.4595
ltoes -16.4621
523
root 10.9289 9.19894 0.143546 149.863 -81.5199 -179.135
lowerback 33.2474 2.86042 0.729893
upperback 15.9245 1.53192 -1.18253
thorax 0.457145 -0.103458 -2.06153
lowerneck -6.25596 3.09239 11.6033
upperneck 4.51967 3.55904 -7.30376
head 2.69843 1.7316 -3.93888
rclavicle -1.78906e-014 2.62396e-014
rhumerus -16.7261 7.44841 -86.2136
rradius 37.8327
rwrist -31.4226
rhand -17.1976 -4.12598
rfingers 7.12502
rthumb 9.04463 -33.9121
lclavicle -1.78906e-014 2.62396e-014
lhumerus -13.6493 27.1559 79.1467
lradius 21.3171
lwrist -15.4174
lhand -25.0706 8.37918
lfingers 7.12502
lthumb 1.44334 38.354
rfemur -58.6272 -1.26144 22.5825
rtibia 101.307
rfoot -12.9 -11.4033
rtoes -24.7163
lfemur -57.2531 9.01317 -15.6121
ltibia 102.446
lfoot -14.5246 3.30643
ltoes -16.5876
524
root 10.9371 9.19289 0.13939 149.227 -81.8134 -178.607
lowerback 33.143 2.88599 0.692838
upperback 15.8898 1.58538 -0.96016
thorax 0.452564 -0.0813423 -1.82423
lowerneck -6.28298 2.85884 11.6418
upperneck 4.7879 3.23734 -7.15934
head 2.75068 1.58028 -3.91613
rclavicle 2.127e-014 -8.74653e-015
rhumerus -17.1613 7.20548 -85.8045
rradius 37.605
rwrist -29.7774
rhand -16.5686 -3.79888
rfingers 7.12502
rthumb 9.65159 -33.5578
lclavicle 2.127e-014 -8.74653e-015
lhumerus -13.8191 25.5583 80.026
lradius 22.2237
lwrist -13.637
lhand -25.2639 7.55595
lfingers 7.12502
lthumb 1.25665 37.532
rfemur -58.5954 -1.35473 22.4961
rtibia 101.341
rfoot -12.881 -11.4142
rtoes -23.7208
lfemur -57.2195 8.71814 -15.7023
ltibia 102.408
lfoot -14.4232 3.31528
ltoes -16.4947
525
root 10.94 9.18482 0.137081 147.5 -81.8275 -176.978
lowerback 32.9656 2.86969 0.915594
upperback 15.9068 1.65186 -0.718661
thorax 0.539147 -0.0407094 -1.70745
lowerneck -6.26717 2.70352 11.3738
upperneck 4.84841 3.03604 -6.85025
head 2.73818 1.48682 -3.78721
rclavicle -1.47101e-014 1.63003e-014
rhumerus -17.4808 7.23141 -85.4232
rradius 37.3856
rwrist -28.3339
rhand -16.3096 -3.1785
rfingers 7.12502
rthumb 9.90147 -32.9257
lclavicle -1.47101e-014 1.63003e-014
lhumerus -14.0932 23.9988 80.7257
lradius 23.1184
lwrist -12.6492
lhand -24.6247 6.40235
lfingers 7.12502
lthumb 1.87408 36.3739
rfemur -58.4777 -1.13042 22.7203
rtibia 101.312
rfoot -12.9022 -11.6157
rtoes -23.6628
lfemur -57.2408 8.7683 -15.4747
ltibia 102.463
lfoot -14.2978 3.11448
ltoes -15.9889
526
root 10.9439 9.18291 0.136457 145.865 -81.7835 -175.511
lowerback 32.8665 2.83553 1.23819
upperback 15.9538 1.7095 -0.540832
thorax 0.635631 0.000834272 -1.70798
lowerneck -6.36306 2.61275 11.1097
upperneck 4.8658 2.9092 -6.56488
head 2.73923 1.42726 -3.66161
rclavicle 1.98785e-014 -4.96962e-014
rhumerus -17.723 7.17705 -85.1441
rradius 37.1871
rwrist -27.0665
rhand -16.3313 -2.66609
rfingers 7.12502
rthumb 9.88049 -32.4142
lclavicle 1.98785e-014 -4.96962e-014
lhumerus -14.3624 22.3099 81.3058
lradius 24.449
lwrist -11.2883
lhand -22.8524 6.80196
lfingers 7.12502
lthumb 3.5856 36.7516
rfemur -58.1648 -0.83064 22.9394
rtibia 101.205
rfoot -12.9571 -11.8886
rtoes -24.172
lfemur -57.14 8.84223 -15.2262
ltibia 102.465
lfoot -14.1724 2.88601
ltoes -15.2656
527
root 10.9532 9.185 0.13578 145.717 -81.9748 -175.602
lowerback 32.8876 2.82906 1.32454
upperback 16.0023 1.72678 -0.440811
thorax 0.682092 0.00907366 -1.65457
lowerneck -6.47103 2.55912 10.9917
upperneck 4.81518 2.82563 -6.41978
head 2.73041 1.38614 -3.60088
rclavicle -7.7526e-015 9.54166e-015
rhumerus -17.9782 7.09755 -84.9159
rradius 37.0988
rwrist -26.2506
rhand -16.2228 -2.57765
rfingers 7.12502
rthumb 9.98517 -32.3208
lclavicle -7.7526e-015 9.54166e-015
lhumerus -14.5909 20.7879 81.7699
lradius 25.7106
lwrist -10.3043
lhand -22.0432 5.78192
lfingers 7.12502
lthumb 4.3671 35.7169
rfemur -57.8066 -0.700296 22.7846
rtibia 101.111
rfoot -12.9698 -12.0781
rtoes -24.2318
lfemur -56.8903 8.69245 -15.3419
ltibia 102.35
lfoot -14.052 2.84513
ltoes -15.011
528
root 10.9632 9.18321 0.134262 145.129 -82.1119 -175.239
lowerback 33.0143 2.78705 1.405
upperback 15.9759 1.70493 -0.306471
thorax 0.606534 -0.00397561 -1.55204
lowerneck -6.36579 2.53444 10.8289
upperneck 4.61515 2.80871 -6.33299
head 2.64817 1.37653 -3.54967
rclavicle 3.86636e-014 -4.53229e-014
rhumerus -18.341 7.34016 -84.717
rradius 37.112
rwrist -26.1636
rhand -16.134 -2.6843
rfingers 7.12502
rthumb 10.0709 -32.4233
lclavicle 3.86636e-014 -4.53229e-014
lhumerus -14.9574 19.4648 82.1284
lradius 26.9415
lwrist -9.48436
lhand -18.9069 8.07981
lfingers 7.12502
lthumb 7.395 37.9306
rfemur -57.5283 -0.516489 22.7365
rtibia 101.059
rfoot -12.8372 -12.2992
rtoes -23.9493
lfemur -56.6742 8.63695 -15.3398
ltibia 102.267
lfoot -13.9527 2.71042
ltoes -15.4393
